<svg width="10" height="10" viewBox="0 0 10 10" fill="none" xmlns="http://www.w3.org/2000/svg">
<path d="M5.30578 6.232L3.46045 6.56416L3.768 4.69423L7.29259 1.18195C7.34977 1.1243 7.4178 1.07853 7.49276 1.04731C7.56771 1.01608 7.64811 1 7.72931 1C7.81052 1 7.89091 1.01608 7.96587 1.04731C8.04083 1.07853 8.10886 1.1243 8.16604 1.18195L8.81806 1.83397C8.87571 1.89115 8.92147 1.95918 8.9527 2.03414C8.98393 2.10909 9.00001 2.18949 9.00001 2.27069C9.00001 2.3519 8.98393 2.43229 8.9527 2.50725C8.92147 2.58221 8.87571 2.65024 8.81806 2.70742L5.30578 6.232Z" stroke="white" stroke-linecap="round" stroke-linejoin="round"/>
<path d="M8.07377 6.53954V8.38487C8.07377 8.548 8.00896 8.70446 7.89361 8.81981C7.77825 8.93517 7.62179 8.99998 7.45866 8.99998H1.61511C1.45197 8.99998 1.29552 8.93517 1.18016 8.81981C1.06481 8.70446 1 8.548 1 8.38487V2.54132C1 2.37818 1.06481 2.22173 1.18016 2.10637C1.29552 1.99101 1.45197 1.92621 1.61511 1.92621H3.46044" stroke="white" stroke-linecap="round" stroke-linejoin="round"/>
</svg>
