<svg width="19" height="19" viewBox="0 0 19 19" fill="none" xmlns="http://www.w3.org/2000/svg">
<path fill-rule="evenodd" clip-rule="evenodd" d="M8.33333 2.20833C4.88155 2.20833 2.08333 5.00655 2.08333 8.45833C2.08333 11.9101 4.88155 14.7083 8.33333 14.7083C11.7851 14.7083 14.5833 11.9101 14.5833 8.45833C14.5833 5.00655 11.7851 2.20833 8.33333 2.20833ZM0 8.45833C0 3.85596 3.73096 0.125 8.33333 0.125C12.9357 0.125 16.6667 3.85596 16.6667 8.45833C16.6667 8.63001 16.6615 8.80047 16.6512 8.96957C16.479 11.8152 16.4291 15.0809 18.4449 17.0968C18.8517 17.5035 18.8517 18.1631 18.4449 18.5699C18.0381 18.9767 17.3785 18.9767 16.9718 18.5699C14.9559 16.5541 11.6902 16.604 8.84457 16.7762C8.67547 16.7865 8.50501 16.7917 8.33333 16.7917C3.73096 16.7917 0 13.0607 0 8.45833Z" fill="#58625A"/>
</svg>
