<svg width="9" height="10" viewBox="0 0 9 10" fill="none" xmlns="http://www.w3.org/2000/svg">
<path d="M1 2.84613H8.38462" stroke="white" stroke-linecap="round" stroke-linejoin="round"/>
<path d="M1.9231 2.84613H7.46156V8.38459C7.46156 8.5478 7.39672 8.70433 7.28132 8.81973C7.16591 8.93514 7.00938 8.99998 6.84617 8.99998H2.53848C2.37527 8.99998 2.21874 8.93514 2.10334 8.81973C1.98793 8.70433 1.9231 8.5478 1.9231 8.38459V2.84613Z" stroke="white" stroke-linecap="round" stroke-linejoin="round"/>
<path d="M3.15381 2.84615V2.53846C3.15381 2.13044 3.3159 1.73912 3.60441 1.4506C3.89293 1.16209 4.28424 1 4.69227 1C5.1003 1 5.49161 1.16209 5.78013 1.4506C6.06864 1.73912 6.23073 2.13044 6.23073 2.53846V2.84615" stroke="white" stroke-linecap="round" stroke-linejoin="round"/>
</svg>
