<svg width="17" height="17" viewBox="0 0 17 17" fill="none" xmlns="http://www.w3.org/2000/svg">
<path d="M8.5 6.18787V9.65099" stroke="#FF0000" stroke-width="1.5" stroke-linecap="round" stroke-linejoin="round"/>
<path d="M8.50004 13.6915C8.81881 13.6915 9.07723 13.4331 9.07723 13.1143C9.07723 12.7955 8.81881 12.5371 8.50004 12.5371C8.18127 12.5371 7.92285 12.7955 7.92285 13.1143C7.92285 13.4331 8.18127 13.6915 8.50004 13.6915Z" stroke="#FF0000" stroke-width="1.5" stroke-linecap="round" stroke-linejoin="round"/>
<path d="M9.52734 1.62803C9.43047 1.43894 9.28329 1.28025 9.10202 1.16944C8.92074 1.05863 8.71241 1 8.49995 1C8.28749 1 8.07915 1.05863 7.89788 1.16944C7.7166 1.28025 7.56943 1.43894 7.47255 1.62803L1.12349 14.3262C1.03494 14.5019 0.992776 14.6973 1.00101 14.8939C1.00925 15.0906 1.06761 15.2818 1.17054 15.4495C1.27348 15.6172 1.41758 15.7558 1.58916 15.8522C1.76074 15.9485 1.9541 15.9994 2.15088 16H14.849C15.0458 15.9994 15.2392 15.9485 15.4107 15.8522C15.5823 15.7558 15.7264 15.6172 15.8293 15.4495C15.9323 15.2818 15.9906 15.0906 15.9989 14.8939C16.0071 14.6973 15.965 14.5019 15.8764 14.3262L9.52734 1.62803Z" stroke="#FF0000" stroke-width="1.5" stroke-linecap="round" stroke-linejoin="round"/>
</svg>
